<svg xmlns="http://www.w3.org/2000/svg" width="124" height="121" viewBox="0 0 124 121" fill="none">
    <path d="M74.7694 61.7963C68.8218 55.385 62.8861 48.9294 56.6383 42.8412C53.5204 39.7749 50.3225 36.8296 47.0005 33.9934C45.2245 32.4733 44.7101 31.6473 42.7373 32.8986C41.2137 33.8905 39.9981 35.4159 38.8019 36.7804C35.089 40.9829 30.3518 43.6056 26.3483 47.5641C21.2641 52.6332 16.0707 57.5782 10.8007 62.4551C22.8488 80.7296 37.6223 96.9815 52.331 113.121C52.6421 113.465 52.9814 113.794 53.408 113.884C53.9351 113.954 54.4199 113.562 54.8205 113.219C65.1091 103.872 75.4257 94.5091 85.7143 85.1625C86.4313 84.5239 87.1601 83.8411 87.4535 82.923C87.8063 81.7834 87.4268 80.5426 86.9955 79.4066C86.0638 76.9498 84.8631 74.6109 83.4541 72.4297C80.9957 68.4959 77.8604 65.1402 74.7694 61.7963Z" fill="#BEEB9F"/>
    <path d="M87.6535 73.6736C86.7295 72.0733 85.9341 70.4362 84.521 69.1558C82.2156 67.0429 80.2945 64.5584 78.2611 62.1387C74.2548 57.3393 70.3328 52.4912 66.3265 47.6918C61.6169 42.0631 56.8953 36.4787 52.1857 30.85C51.0739 29.5079 49.9622 28.1658 48.8504 26.8237C48.2399 26.0905 47.3409 24.663 46.4627 24.309C45.6007 23.9831 45.2013 24.5881 44.7295 25.1974C43.4502 26.8718 41.8835 28.1133 40.265 29.4595C37.4167 31.8527 34.645 34.3139 31.7524 36.6952C30.2019 37.9647 28.5584 39.1382 26.9474 40.3677C26.3503 40.8248 25.6884 41.1695 25.1518 41.6665C24.9995 41.7918 24.8635 41.9453 24.7555 42.0824C23.8939 42.7297 23.0971 43.4892 22.2192 44.1083C19.7821 45.8523 17.3083 47.4677 14.9199 49.2959C12.864 50.8572 11.0414 52.4335 9.4944 54.4871C8.94274 55.2174 6.72709 57.0207 6.77169 58.0057C6.80209 58.5122 7.10022 58.6395 7.42324 58.9397C8.40418 59.7958 9.3365 60.5677 10.2376 61.5449C12.2903 63.8036 14.1509 66.2482 16.2199 68.5351C19.5497 72.2277 23.0199 75.8393 26.2818 79.6086C28.1088 81.7357 30.0686 83.8983 31.6311 86.2156C33.1287 88.4205 34.5302 90.7183 36.3885 92.6402C38.0934 94.426 39.6341 96.3815 41.3832 98.1791C43.4435 100.321 45.5481 102.475 47.5523 104.65C48.4857 105.683 49.4149 106.644 50.2803 107.754C50.8303 108.447 51.402 109.502 52.156 109.965C53.5106 110.755 55.0113 109.14 56.0133 108.412C60.4987 105.223 64.6125 101.65 68.9888 98.3377C70.8643 96.9179 72.8814 95.6785 74.7084 94.1745C75.9544 93.1557 77.0146 91.9446 78.2606 90.9257C79.5347 89.8907 81.0271 89.1039 82.2082 87.9728C83.6097 86.6396 85.1646 85.4424 86.122 83.7292C86.2106 83.7529 86.311 83.7323 86.3952 83.6837C87.4685 82.6897 87.9668 80.8298 88.1575 79.4095C88.2976 78.3553 88.3491 77.2774 88.4168 76.2276C88.4232 75.8496 88.5137 75.423 88.4035 75.0375C88.4553 74.9327 88.4347 74.8322 88.3699 74.7199C88.3212 74.6357 88.2888 74.5795 88.2402 74.4953C88.2683 74.4791 88.3082 74.4186 88.3363 74.4024C88.6364 74.0794 88.079 73.5028 87.6535 73.6736ZM87.0655 78.8795C87.016 79.5071 86.8941 80.1389 86.7561 80.7427C86.6771 80.1519 86.5419 79.5936 86.4272 79.1357C86.2154 78.5094 85.7994 78.1131 85.4353 77.6121C86.2246 76.9692 86.8205 76.2508 87.4283 75.4881C87.1317 76.5953 87.1656 77.8859 87.0655 78.8795ZM84.4555 77.0173C84.2028 77.1632 84.0755 77.4613 84.1933 77.7302C85.1239 79.9256 86.0186 81.2808 84.5969 83.4866C83.9741 84.4826 83.1804 85.0531 82.2788 85.7608C81.3211 86.501 80.5005 87.3491 79.4823 88.0492C77.4059 89.5101 75.7541 91.5119 73.7381 93.0127C72.139 94.198 70.5561 95.4114 68.8964 96.5568C67.2206 97.6741 65.5091 98.9242 64.0072 100.278C61.9245 102.117 59.7725 103.771 57.6249 105.498C56.8075 106.157 56.002 106.771 55.1522 107.374C54.6911 107.678 53.6266 108.817 53.0185 108.606C52.9742 108.594 51.2381 107.014 52.5939 108.065C51.8474 107.486 51.3599 106.382 50.7495 105.649C49.7468 104.431 48.6761 103.29 47.5612 102.137C44.2563 98.6167 41.0031 94.9921 37.6583 91.5328C35.9534 89.7469 34.6535 87.6899 33.2412 85.6977C31.8452 83.7336 30.1566 81.9759 28.5802 80.1533C25.5809 76.6441 22.4369 73.1437 19.2854 69.7599C16.0734 66.3362 13.1259 62.7223 9.94198 59.2823C9.73995 59.0621 9.54977 58.7975 9.34773 58.5772C9.11762 58.3732 8.88752 58.1692 8.62933 57.9813C9.20271 57.6128 9.94655 56.6967 10.2823 56.2408C11.1578 55.099 11.7234 53.8741 12.8247 52.8639C13.7737 51.979 14.8438 51.1741 15.8696 50.3572C18.0615 48.6425 20.2621 47.0725 22.5188 45.4701C23.2844 44.9158 24.0337 44.3335 24.7668 43.723C29.48 40.2157 34.2213 36.6922 38.498 32.6883C39.7073 31.5409 41.0138 30.562 42.2717 29.4988C43.0329 28.8722 43.8103 28.2736 44.5111 27.607C44.8836 27.2796 45.3423 26.4533 45.6911 26.2145C46.4049 25.7649 46.1652 26.1279 46.6816 26.5036C47.4118 27.0553 47.9543 27.8651 48.5323 28.5421C49.6441 29.8842 50.7839 31.2101 51.8957 32.5522C56.3061 37.7922 60.7164 43.0321 65.1268 48.2721C68.9753 52.8631 73.0042 57.3127 76.6443 62.0614C77.6675 63.3798 78.8991 64.5405 79.9785 65.8264C81.0092 67.0282 81.811 68.2872 83.022 69.3474C84.0192 70.2317 84.8716 71.1246 85.6766 72.1946C85.7857 72.3188 86.5788 73.4331 87.1892 74.1662C86.2607 75.1515 85.6066 76.3527 84.4555 77.0173Z" fill="black"/>
    <path d="M43.2764 40.1864C42.9525 40.598 42.6124 40.9815 42.321 41.4493C41.9496 42.038 41.3644 42.4508 40.8234 42.8754C40.4509 43.2027 39.9855 43.434 39.6616 43.8456C39.2816 44.2896 39.0301 44.6969 38.5733 45.0729C36.6503 46.6698 34.3351 47.7819 32.5536 49.5591C32.1293 49.9912 31.7493 50.4352 31.2925 50.8112C30.824 51.2315 30.2743 51.5114 29.8057 51.9317C28.9646 52.6793 28.1559 53.4831 27.2705 54.2189C26.7177 54.6878 26.1206 55.1449 25.5678 55.6138C25.4824 55.401 25.3246 55.1927 25.1388 55.0005C24.2907 54.1799 22.9567 53.4902 21.7503 53.4755C20.4996 53.4489 19.653 53.8628 19.3002 55.0023C17.8794 56.4965 18.106 59.5475 19.4835 60.9608C20.7681 62.278 22.6654 61.2201 23.9826 59.9355C25.0008 59.2353 25.7036 58.1183 26.1125 56.9464C26.1525 56.8859 26.0196 56.8503 26.0078 56.8946C25.8523 57.2089 25.6688 57.5394 25.4573 57.8862C25.6839 57.3061 25.8219 56.7024 25.7429 56.1116C26.408 55.5779 27.085 54.9998 27.7502 54.4661C29.5889 52.9178 31.4277 51.3696 33.1736 49.7252C34.9756 48.0484 37.2628 46.9525 39.1253 45.3157C39.4697 45.0045 39.6975 44.6859 39.9977 44.3628C40.4176 43.8583 41.0472 43.4574 41.5438 43.0209C42.4972 42.2085 42.9884 41.4382 43.5626 40.358C43.5259 40.2295 43.3562 40.0654 43.2764 40.1864ZM21.4827 61.1167C19.8401 61.5784 19.0415 60.1304 18.77 58.7524C18.5439 57.6476 18.5381 56.3407 19.1653 55.4171C18.9054 56.6527 18.9286 58.249 19.577 59.372C20.2416 60.5231 21.6057 60.7463 22.8066 60.4273C22.378 60.7871 21.9125 61.0183 21.4827 61.1167ZM23.8605 59.5942C23.5678 59.8006 23.2871 59.9627 22.9458 60.0848C21.3238 60.647 19.9012 59.9336 19.5237 58.2424C19.3269 57.3827 19.24 55.9355 19.6458 54.9525C19.8261 54.811 20.0226 54.6975 20.2354 54.6121C20.3196 54.5635 20.2666 54.4069 20.1662 54.4275C20.0377 54.4643 19.9254 54.5291 19.8411 54.5777C20.029 54.3195 20.233 54.0894 20.5181 53.9997C21.7784 53.4593 23.2128 54.1284 24.2575 54.8355C24.7252 55.127 25.0245 55.5157 25.1791 55.9131C24.8746 56.1637 24.5701 56.4144 24.2494 56.637C23.8607 56.9363 23.5368 57.3479 23.0876 57.6072C22.8349 57.7531 22.5898 57.7824 22.4462 58.0524C22.3944 58.1572 22.5478 58.2932 22.6439 58.2003C22.8598 57.9259 23.5909 57.7658 23.8954 57.5152C24.2561 57.2321 24.5886 56.9652 24.9212 56.6983C25.0335 56.6335 25.1577 56.5244 25.2818 56.4153C25.4031 57.4683 24.7771 58.6532 23.8605 59.5942Z" fill="black"/>
    <path d="M47.8088 42.1366C46.7225 42.9135 45.7984 43.9712 44.7445 44.8042C43.7188 45.621 42.5795 46.2413 41.5862 47.1143C39.5315 48.937 37.3072 50.5955 35.2082 52.4063C33.0249 54.2657 30.7974 56.1133 28.4889 57.8205C26.4168 59.3537 24.6926 61.3599 22.5395 62.7527C22.3991 62.8338 22.5126 63.0303 22.6692 62.9773C23.6843 62.4662 24.5254 61.7185 25.3945 60.9546C26.4721 60.033 27.5896 59.0509 28.7158 58.2135C30.9283 56.5993 33.0154 54.8328 35.163 53.1062C36.2007 52.2451 37.2059 51.3278 38.2597 50.4948C39.3697 49.6293 40.5521 48.7595 41.6134 47.8098C43.68 45.9429 46.2317 44.6568 48.0757 42.4692C48.1955 42.2877 48.0172 41.9789 47.8088 42.1366Z" fill="black"/>
    <path d="M50.9703 43.2686C50.5448 43.4393 50.317 43.758 50.005 44.1253C49.5408 44.618 49.016 45.0707 48.5031 45.4791C47.4536 46.3845 46.416 47.2456 45.3341 48.0948C42.9899 49.9349 40.9245 52.0632 38.548 53.8471C36.2556 55.5823 34.0562 57.4137 31.7919 59.1327C30.8342 59.8729 29.9693 60.7091 28.9997 61.4935C27.8217 62.4357 26.514 63.1532 25.2712 63.9831C25.1589 64.0479 25.2723 64.2444 25.3846 64.1796C26.6405 63.5668 27.8921 62.8817 29.0183 62.0443C30.0602 61.2556 30.9769 60.3145 32.0188 59.5258C34.3112 57.7905 36.5268 55.9873 38.7911 54.2682C40.9992 52.5816 42.9729 50.6185 45.1486 48.8758C46.2305 48.0265 47.2962 47.1492 48.3457 46.2438C48.8424 45.8073 49.3552 45.3989 49.8238 44.9786C50.3043 44.514 50.7081 43.9814 51.2209 43.573C51.4013 43.4315 51.1668 43.1551 50.9703 43.2686Z" fill="black"/>
    <path d="M52.522 45.8914C52.0166 46.1832 51.6971 46.6672 51.3008 47.0831C50.8765 47.5152 50.3755 47.8794 49.935 48.2835C48.8412 49.177 47.8079 50.1105 46.7746 51.0439C44.6519 52.9433 42.137 54.3579 39.8889 56.105C38.7789 56.9704 37.6852 57.864 36.5914 58.7575C35.4015 59.7439 34.365 60.8664 33.1309 61.841C32.6579 62.1889 32.266 62.6772 31.8255 63.0813C31.2328 63.6107 30.5795 64.1002 29.9749 64.6739C29.4102 65.1871 28.7969 65.616 28.216 66.1011C27.7193 66.5376 27.3112 66.9978 26.7216 67.3382C26.6374 67.3869 26.7184 67.5273 26.8026 67.4786C27.862 66.9793 28.8273 66.1225 29.7407 65.3706C30.9187 64.4284 31.9595 63.3783 33.0933 62.4242C35.2884 60.5205 37.4834 58.6168 39.7995 56.793C41.0337 55.8184 42.2959 54.8276 43.6111 53.9934C44.746 53.3008 45.8603 52.5077 46.8537 51.6347C47.9032 50.7293 48.8922 49.7839 49.986 48.8904C50.4708 48.4982 50.9836 48.0898 51.4522 47.6695C51.9327 47.2049 52.1712 46.5806 52.6074 46.1042C52.7153 45.967 52.6062 45.8428 52.522 45.8914Z" fill="black"/>
    <path d="M53.5601 49.6345C53.4759 49.6831 53.4845 49.8278 53.5731 49.8516C53.6617 49.8753 53.5268 50.2901 53.4869 50.3506C53.3271 50.5926 52.9416 50.7028 52.717 50.8325C52.1392 51.1286 51.5659 51.4971 51.0368 51.8774C49.9786 52.6381 49.0619 53.5791 48.02 54.3679C45.936 55.9454 44.1794 57.8954 42.156 59.5128C40.0645 61.207 37.824 62.8375 35.8859 64.6677C34.9649 65.5363 33.9261 66.136 32.9522 66.8481C32.4231 67.2284 31.9059 67.5645 31.3606 67.9168C31.0399 68.1393 30.9924 68.3165 30.6998 68.5229C30.6436 68.5553 30.7085 68.6676 30.7646 68.6352C31.2463 68.432 31.6749 68.0722 32.1403 67.8409C32.7299 67.5005 33.2428 67.0921 33.8324 66.7517C34.9835 66.0871 35.872 65.1623 36.8816 64.3174C39.3812 62.1631 42.0871 60.3013 44.4938 58.0508C45.607 56.9964 46.7881 55.8652 48.0104 54.9349C49.2608 53.9884 50.3858 52.8896 51.7129 52.0112C52.2863 51.6427 52.9083 51.3584 53.4979 51.018C53.7786 50.8559 53.9309 50.7306 54.0139 50.4206C54.097 50.1106 54.0536 49.387 53.5601 49.6345Z" fill="black"/>
    <path d="M56.0399 52.9569C55.5582 53.1601 55.2949 53.6116 54.9105 53.9833C54.4581 54.4316 53.9614 54.8681 53.509 55.3165C52.5481 56.2456 51.6034 57.2028 50.6911 58.2162C49.0144 60.0452 47.246 62.0395 45.149 63.3999C43.052 64.7603 41.2986 66.5213 39.2459 67.8936C37.109 69.3146 35.4366 71.2159 33.4088 72.761C33.3246 72.8097 33.4057 72.95 33.4899 72.9014C34.5773 72.3859 35.4583 71.5777 36.3113 70.7858C37.3165 69.8685 38.3423 69.0517 39.4728 68.2867C40.4792 67.6308 41.4045 66.8345 42.3623 66.0944C43.4161 65.2614 44.43 64.4888 45.5325 63.74C47.5172 62.4444 49.25 60.583 50.8144 58.8188C51.6868 57.8659 52.5753 56.9411 53.4801 56.0444C53.9887 55.5637 54.481 55.0548 55.0057 54.6021C55.4743 54.1818 55.7939 53.6979 56.202 53.2376C56.3661 53.068 56.2245 52.8877 56.0399 52.9569Z" fill="black"/>
    <path d="M50.4474 63.111C50.4312 63.0829 50.4032 63.0991 50.3869 63.071C50.3427 63.0592 50.2703 63.0635 50.2584 63.1078C50.2304 63.124 50.2185 63.1683 50.1904 63.1845C50.1505 63.245 50.171 63.3454 50.2434 63.3411C49.8772 63.2904 49.6581 63.7538 49.4541 63.984C49.1421 64.3513 48.8095 64.6181 48.4651 64.9293C47.6758 65.5722 46.8703 66.187 45.9719 66.7057C44.4558 67.581 43.0607 68.5361 41.7186 69.6479C40.2922 70.8083 39.0074 72.1491 37.5487 73.2533C36.9516 73.7104 36.3707 74.1955 35.7736 74.6525C35.2607 75.0609 34.6896 75.9521 34.019 76.1522C33.8905 76.1889 33.9316 76.3898 34.0763 76.3811C34.5785 76.2783 35.0708 75.7695 35.4433 75.4421C36.1484 74.8479 36.8978 74.2655 37.6352 73.7274C39.094 72.6232 40.3994 71.3829 41.8095 70.1944C44.6859 67.785 48.2787 66.422 50.549 63.3518C50.6451 63.2589 50.5522 63.1628 50.4474 63.111Z" fill="black"/>
    <path d="M47.152 68.9442C46.8692 69.5566 46.2192 69.8571 45.7063 70.2655C45.2614 70.5972 44.8165 70.9289 44.3879 71.2887C43.2941 72.1822 42.4348 73.3522 41.3734 74.3019C39.5271 75.9668 37.4301 77.3272 35.5071 78.9241C35.411 79.017 35.5526 79.1973 35.6486 79.1044C37.7326 77.5269 40.0067 76.214 41.9329 74.4281C43.0742 73.3574 44.0339 72.1669 45.2843 71.2204C45.9937 70.6985 47.2939 70.0976 47.5268 69.1395C47.598 68.8738 47.2675 68.6903 47.152 68.9442Z" fill="black"/>
    <path d="M47.3367 72.5061C46.5375 72.7428 45.9751 73.7788 45.3705 74.3525C44.5337 75.1725 43.7531 75.96 42.7954 76.7002C41.8376 77.4403 40.8799 78.1804 39.9708 79.0048C38.9656 79.9221 38.0738 81.0358 36.9595 81.8289C36.8191 81.91 36.9488 82.1346 37.073 82.0255C38.007 81.3739 38.8038 80.6144 39.6287 79.8387C40.5939 78.9819 41.6197 78.1651 42.6617 77.3763C43.5233 76.7291 44.3126 76.0862 45.0652 75.3149C45.2574 75.129 47.3346 72.9564 47.3066 72.9726C47.4275 73.0525 47.6521 72.9228 47.5992 72.7663C47.583 72.7382 47.5668 72.7101 47.5505 72.682C47.5581 72.5654 47.4371 72.4855 47.3367 72.5061Z" fill="black"/>
    <path d="M58.0716 56.8001C57.4907 57.2852 57.2609 58.0543 57.071 58.7628C56.6586 59.1507 56.4806 59.815 56.7162 60.3528C56.7324 60.3808 56.7648 60.437 56.781 60.465C56.7759 61.1044 56.8873 61.7513 57.1909 62.2124L57.2072 62.2405C56.8216 62.3508 56.4685 62.5172 56.1197 62.756C56.1478 62.7398 56.1316 62.7117 56.1597 62.6955C56.1715 62.6512 56.1272 62.6393 56.0992 62.6556C56.0592 62.716 56.0193 62.7766 55.9794 62.837C55.839 62.9181 55.7148 63.0272 55.5744 63.1083C55.4621 63.1731 55.5475 63.3858 55.7041 63.3329C55.973 63.2151 56.2537 63.053 56.5226 62.9352C56.527 63.0075 56.6155 63.0312 56.676 63.0712C56.6969 64.1447 55.8668 65.5598 55.3357 66.3905C54.3415 67.9753 52.0437 69.3768 50.5397 67.5499C50.491 67.4656 50.3669 67.5748 50.4155 67.659C51.5447 69.2906 53.5048 68.7953 54.7864 67.6436C55.5314 66.9888 55.9577 66.1063 56.384 65.2238C56.6906 64.5227 57.1892 63.6359 57.0691 62.8442C57.081 62.8 57.0486 62.7438 57.0323 62.7157C57.0885 62.6833 57.1609 62.679 57.2332 62.6746C57.3024 62.8593 57.2668 62.9922 57.2798 63.2092C57.3004 63.3097 57.3609 63.3496 57.4332 63.3453C57.7065 63.2998 57.7614 63.006 57.716 62.7328C58.9939 63.4549 61.2724 62.2143 61.8616 60.9008C62.3215 60.3358 62.6399 59.5905 62.5403 58.8993C62.3412 57.517 59.3176 55.7812 58.0716 56.8001ZM57.0797 58.9075C57.0441 59.0404 56.9967 59.2175 56.9611 59.3504C56.9136 59.5275 56.8823 59.7328 56.8511 59.938C56.757 59.5805 56.8076 59.2144 57.0797 58.9075ZM57.2381 61.0621C57.6422 61.5027 58.2147 61.8459 58.7904 62.0002C59.2775 62.1307 59.6717 62.1652 60.0173 62.1154C59.5238 62.3629 58.8619 62.7076 58.2862 62.5533C57.5334 62.3516 57.3053 61.6972 57.2381 61.0621ZM62.0246 60.4699C62.0202 60.3975 61.8874 60.3619 61.8637 60.4505C61.7406 60.8209 61.4686 61.1278 61.1641 61.3784C60.3424 61.9651 59.3618 62.0821 58.3907 61.632C57.9878 61.4529 57.5437 61.0729 57.212 60.628C57.1773 60.0491 57.1781 59.3374 57.368 58.6288C57.3961 58.6126 57.3356 58.5727 57.3356 58.5727L57.3032 58.5165L57.4155 58.4517C57.8212 57.4687 58.4441 56.4727 59.6517 56.7488C60.5654 56.9699 61.4966 57.4805 62.039 58.2903C62.4442 58.9922 62.3916 59.8088 62.0246 60.4699Z" fill="black"/>
    <path d="M54.8771 51.0079C54.5964 51.17 54.5046 51.3353 54.3168 51.5934C53.9573 52.1379 53.5773 52.5819 53.0201 52.9785C52.1866 53.6095 51.4221 54.4251 50.5562 55C50.5281 55.0162 50.5605 55.0723 50.5886 55.0561C51.0983 54.8367 51.3866 54.558 51.8152 54.1982C52.2439 53.8384 52.7212 53.5629 53.1941 53.2149C53.5148 52.9924 53.8311 52.6974 54.1194 52.4187C54.3515 52.1723 54.507 51.858 54.6786 51.5717L54.7067 51.5555C54.8146 51.4183 54.8945 51.2973 55.0025 51.1601C55.1148 51.0953 54.9894 50.9431 54.8771 51.0079Z" fill="black"/>
    <path d="M55.928 51.3369C55.1106 51.996 54.3949 52.8959 53.7914 53.731C53.3758 54.3079 52.8348 54.7325 52.2982 55.2295C51.8858 55.6173 51.2218 56.4124 50.6429 56.4472C50.4982 56.4559 50.4831 56.6892 50.6441 56.7085C51.0782 56.6825 51.2985 56.4804 51.603 56.2298C52.1839 55.7447 52.7929 55.2433 53.3576 54.7301C54.4189 53.7805 55.0201 52.4227 56.0209 51.433C56.0727 51.3283 55.996 51.2602 55.928 51.3369Z" fill="black"/>
    <path d="M21.1577 60.5552C20.849 60.7334 20.6202 60.7907 20.2498 60.6678C19.968 60.5685 19.7823 60.3764 19.5685 60.2005C19.5523 60.1725 19.4961 60.2049 19.5286 60.261C19.7586 60.465 20.0329 60.6808 20.3427 60.7638C20.6969 60.8587 20.9095 60.7734 21.1577 60.5552C21.202 60.5671 21.1858 60.539 21.1577 60.5552Z" fill="black"/>
    <path d="M27.0184 50.0221C26.8801 49.6528 26.6294 49.3483 26.2708 49.181C25.5697 48.8745 24.816 49.3845 24.2545 49.7087C24.1142 49.7897 24.2438 50.0143 24.3842 49.9333C24.8896 49.6415 25.5472 49.2244 26.1316 49.5234C26.2363 49.5752 26.2968 49.6151 26.3735 49.6832C26.3455 49.6994 26.3174 49.7156 26.2893 49.7318C26.2569 49.6756 26.1845 49.68 26.0841 49.7005C26.0117 49.7049 25.9394 49.7092 25.867 49.7136C25.7385 49.7503 25.5981 49.8314 25.4577 49.9124C24.9686 50.2323 24.5886 50.6763 24.1643 51.1084C23.5877 51.6659 22.5619 52.4828 22.4413 53.376C22.4175 53.4645 22.5504 53.5001 22.6065 53.4677C22.6346 53.4515 22.6627 53.4353 22.6627 53.4353C22.7469 53.3867 22.7102 53.2582 22.6097 53.2787C22.7264 53.2862 23.4259 52.3583 23.5339 52.2211C23.874 51.8375 24.2465 51.5102 24.6471 51.1666C24.9634 50.8717 25.3272 50.3996 25.7365 50.2007C26.0054 50.0829 26.2149 50.1865 26.4795 49.9963C26.5076 49.9801 26.5076 49.9801 26.5194 49.9359C26.8112 50.4412 26.7218 51.1292 27.0135 51.6346C27.0784 51.7469 27.2069 51.7101 27.2749 51.6334C27.303 51.6172 27.3148 51.5729 27.3148 51.5729C27.3548 51.5124 27.3224 51.4563 27.2781 51.4444C27.3829 51.4962 27.0508 50.0782 27.0184 50.0221Z" fill="black"/>
    <path d="M33.6825 43.9286C33.3404 44.7625 32.7429 44.2464 32.2214 44.5101C31.8402 44.6927 31.7215 45.1356 31.5218 45.4381C31.2703 45.8453 30.8503 46.3498 30.5383 46.7171C30.5427 46.7895 30.5189 46.8781 30.5071 46.9223C30.1152 47.4106 29.7858 47.4885 29.5751 47.1235C29.4422 47.0879 29.2564 46.8958 29.0792 46.8483C29.035 46.8364 28.9345 46.857 28.8784 46.8894C28.5664 47.2567 28.8344 47.8506 28.8885 48.2686C28.9091 48.369 29.0312 48.7103 28.9352 48.8032C28.811 48.9123 28.2622 48.4805 28.0969 48.3887C27.7826 48.2333 27.6011 48.1135 27.2998 48.1751C27.2717 48.1913 27.2598 48.2356 27.3041 48.2475C27.747 48.3662 28.8469 49.7526 29.2938 48.9705C29.4373 48.7004 29.3108 48.2868 29.2654 48.0136C29.2448 47.9131 29.0816 47.371 29.1496 47.2943C29.2176 47.2176 29.5169 47.6063 29.6541 47.7143C29.9847 47.8978 30.3184 47.8923 30.6066 47.6135C30.7988 47.4277 30.802 47.2387 30.8894 47.0011C31.1042 46.4653 31.3731 46.3475 31.6807 45.9078C31.9884 45.4682 32.0865 44.9249 32.7496 44.8415C32.9224 44.8166 33.0758 44.9526 33.2605 44.8835C33.6903 44.785 33.8489 44.2817 33.8833 43.8875C33.8833 43.8875 33.7062 43.84 33.6825 43.9286Z" fill="black"/>
    <path d="M49.875 76.3188C49.0003 76.749 48.0252 77.1997 47.2802 77.8544C46.5352 78.5091 45.8712 79.3042 45.2029 80.027C43.7421 81.5816 42.3699 83.16 40.5656 84.314C40.4533 84.3789 40.5505 84.5473 40.6628 84.4825C42.464 83.5174 43.8935 82.168 45.2539 80.634C45.906 79.8831 46.5743 79.1604 47.275 78.4938C48.0156 77.7667 48.9508 77.3765 49.7725 76.7898C49.8848 76.7249 49.8848 76.7249 50.0652 76.5834C50.1731 76.4462 50.0154 76.2378 49.875 76.3188Z" fill="black"/>
    <path d="M53.4501 77.3242C52.5592 77.7263 51.6035 78.016 50.7288 78.4462C49.8142 78.9368 48.9968 79.5959 48.2399 80.2949C46.6463 81.8139 45.3401 83.7659 43.4147 84.8401C43.2463 84.9374 43.3922 85.1901 43.5606 85.0928C45.3899 84.1115 46.6411 82.4533 48.0944 81.0153C48.903 80.2115 49.8003 79.4315 50.7829 78.8641C51.6814 78.3454 52.677 77.9952 53.4987 77.4085C53.5992 77.3879 53.5343 77.2756 53.4501 77.3242Z" fill="black"/>
    <path d="M72.0429 67.1887C71.4889 67.3963 71.1133 67.9127 70.7008 68.3005C70.1081 68.8299 69.4872 69.3755 68.9269 69.9611C67.75 71.1646 66.4921 72.2278 65.19 73.279C62.5457 75.4421 60.1682 77.9377 57.35 79.8643C57.2658 79.913 57.3468 80.0533 57.431 80.0047C58.7949 79.2547 60.0528 78.1916 61.2588 77.2332C62.5329 76.1981 63.7141 75.067 64.9882 74.0319C66.2742 72.9525 67.6088 71.9574 68.7856 70.7539C69.6904 69.8572 70.5908 68.8881 71.5561 68.0313C71.8369 67.8692 72.1176 67.7071 72.245 67.409C72.2687 67.3204 72.1552 67.1239 72.0429 67.1887Z" fill="black"/>
    <path d="M73.5708 69.9002C70.8443 71.6615 68.3317 73.5988 65.8397 75.6365C64.8981 76.4047 64.0495 77.269 63.1242 78.0653C62.7916 78.3321 62.459 78.599 62.1265 78.8659C61.8619 79.0561 61.2637 79.2517 61.0877 79.4656C61.1557 79.3889 61.0628 79.2928 60.9786 79.3415C60.9505 79.3577 60.9224 79.3739 60.8943 79.3901C60.8382 79.4225 60.8263 79.4668 60.8587 79.5229C61.3731 80.349 64.068 77.8198 64.5248 77.4438C65.9511 76.2834 67.3008 75.055 68.7433 73.9226C70.378 72.6045 72.1749 71.5671 73.842 70.3051C74.0623 70.103 73.8354 69.71 73.5708 69.9002Z" fill="black"/>
    <path d="M75.9377 71.3413C74.819 72.062 74.0482 73.2557 73.0225 74.0725C71.7365 75.1519 70.3901 76.1913 68.9463 77.0623C67.6992 77.8198 66.5492 78.7457 65.4436 79.6835C64.8907 80.1525 64.3984 80.6613 63.9385 81.2263C63.8025 81.3797 63.6826 81.5612 63.5185 81.7308C63.4387 81.8518 62.942 82.2883 62.9345 82.4049C62.9582 82.3164 62.7973 82.297 62.7735 82.3855C62.7617 82.4298 62.7498 82.4741 62.7379 82.5184C62.7423 82.5908 62.7747 82.6469 62.8471 82.6426C63.2045 82.5485 63.3924 82.2903 63.6363 81.9997C64.0725 81.5233 64.5206 81.0026 64.9892 80.5823C66.1585 79.4954 67.6615 78.403 69.021 77.5807C70.3406 76.8188 71.5067 75.9209 72.6847 74.9788C73.2818 74.5217 73.8347 74.0528 74.3831 73.5116C74.8074 73.0794 75.2274 72.5749 75.7122 72.1827C76.0578 72.1329 76.1938 71.9795 76.305 71.6533C76.4205 71.3995 76.118 71.1998 75.9377 71.3413Z" fill="black"/>
    <path d="M53.3471 79.48C52.5451 80.8789 52.28 82.7539 52.1423 84.3308C52.0896 85.1473 52.158 86.0437 52.222 86.8678C52.2935 87.5752 52.3132 88.3873 52.754 88.9564C52.8469 89.0525 53.0241 89.0999 53.0877 88.9509C53.2431 88.6365 53.2214 88.2747 53.0712 87.9497C53.0388 87.8935 52.9502 87.8698 52.8941 87.9022C52.866 87.9184 52.8379 87.9346 52.8098 87.9508C52.7256 87.9995 52.7624 88.128 52.8628 88.1074C52.8628 88.1074 52.8509 88.1517 52.8272 88.2403C52.5991 87.5859 52.6031 86.6851 52.5803 86.062C52.5412 85.4107 52.4459 84.7919 52.5073 84.1201C52.6494 82.6156 52.8065 80.8778 53.5243 79.5275C53.5923 79.4508 53.4108 79.331 53.3471 79.48Z" fill="black"/>
    <path d="M54.6121 87.2472C54.3887 87.6382 54.3305 88.121 54.079 88.5283C53.7875 88.996 52.9907 89.7555 52.3814 89.2838C52.0465 89.0279 51.7698 88.2893 51.6152 87.8919C51.331 87.2698 51.1515 86.6997 51.0681 86.0365C51.0476 85.9361 50.9029 85.9448 50.9072 86.0172C50.9593 86.8855 51.1843 87.7289 51.5377 88.5356C51.7733 89.0734 52.0176 89.7559 52.6775 89.8615C54.0255 90.0565 54.8825 88.3639 54.7568 87.2385C54.7244 87.1824 54.652 87.1867 54.6121 87.2472Z" fill="black"/>
    <path d="M57.4022 91.6258C56.5197 91.1995 55.0065 90.9127 53.9978 91.0459C51.5786 91.3944 51.9359 93.9583 52.6751 95.6278C53.1096 96.5748 53.8225 96.837 54.5699 96.705C55.3626 96.8462 56.42 96.7973 57.0246 96.2236C57.6573 95.6337 58.0987 94.5179 58.1913 93.6409C58.2645 92.9248 58.1357 91.9885 57.4022 91.6258ZM57.8726 93.4131C57.848 94.2134 57.4585 95.2245 56.9143 95.8381C56.5343 96.2821 55.936 96.4778 55.3409 96.4844C56.2156 96.0543 57.0243 95.2505 57.3545 94.4609C57.3901 94.3281 57.2249 94.2363 57.173 94.3411C56.778 95.0184 55.9974 95.806 55.2911 96.1388C54.9661 96.2891 54.6367 96.3669 54.2868 96.3444C54.1982 96.3206 54.1096 96.2969 54.0211 96.2732C53.6949 96.162 53.2303 95.6816 52.8618 95.1082C52.8413 95.0078 52.7764 94.8955 52.7559 94.795C52.6175 94.4257 52.5072 94.0402 52.4531 93.6222C52.4843 93.417 52.6042 93.2355 52.8126 93.0778C52.8968 93.0291 52.832 92.9168 52.7477 92.9655C52.6074 93.0465 52.4994 93.1837 52.4195 93.3047C52.4128 92.7096 52.5552 92.1782 53.0681 91.7698C53.9017 91.1388 54.9602 91.3512 55.902 91.5561C56.2844 91.6348 56.7229 91.6811 57.0372 91.8365C57.7102 92.1593 57.8778 92.7737 57.8726 93.4131Z" fill="black"/>
    <path d="M55.8528 93.1567C55.6951 92.9483 55.357 92.8814 55.115 92.7217C54.9336 92.6018 54.724 92.4982 54.5113 92.5836C54.1139 92.7382 54.2566 93.1799 54.3344 93.5092C54.2901 93.4974 54.2459 93.4855 54.2178 93.5017C54.1011 93.4942 54.098 93.6832 54.1865 93.7069C54.2589 93.7026 54.3475 93.7263 54.3917 93.7382C54.5064 94.1961 54.9799 95.7944 55.4398 95.2294C55.4679 95.2132 55.4474 95.1127 55.3912 95.1451C55.0013 95.1831 54.852 94.1463 54.7579 93.7888C55.1359 93.7952 55.4653 93.7173 55.8259 93.4343C55.922 93.3413 55.9015 93.2409 55.8528 93.1567ZM54.7286 93.5437C54.6757 93.3871 54.6227 93.2305 54.6464 93.1419C54.6971 92.7758 54.9758 93.0641 55.1411 93.1558C55.2178 93.2238 55.3507 93.2594 55.4997 93.3231C55.2028 93.4571 54.9738 93.5144 54.7286 93.5437Z" fill="black"/>
    <path d="M11.0348 55.4695C11.2351 57.1132 11.5683 58.7926 11.8129 60.4482C11.8173 60.5205 11.9177 60.5 11.9576 60.4395C12.208 59.7708 11.819 59.097 11.7312 58.3616C11.6143 57.3809 11.3688 56.4371 11.2519 55.4564C11.2594 55.3398 11.0261 55.3248 11.0348 55.4695Z" fill="black"/>
    <path d="M12.6848 54.8911C13.0133 55.525 12.9812 56.442 13.0689 57.1774C13.1729 57.941 13.2768 58.7045 13.3969 59.4961C13.4803 60.1593 13.5032 60.7824 13.6146 61.4293C13.7012 61.9034 13.7545 63.0331 14.1099 63.3894C14.0775 63.3333 13.9933 63.3819 13.9976 63.4543C14.0138 63.4823 13.9857 63.4985 14.0019 63.5266C14.0063 63.599 14.1273 63.6789 14.1791 63.5741C14.3582 63.1712 14.1875 62.7457 14.1171 62.2997C13.9646 61.4519 13.8282 60.6322 13.7037 59.7682C13.5749 58.8319 13.418 57.9117 13.2892 56.9754C13.1896 56.2842 13.2423 55.4677 12.8695 54.822C12.8003 54.6373 12.6037 54.7508 12.6848 54.8911Z" fill="black"/>
    <path d="M14.26 56.4524C14.6893 58.0388 15.2471 59.5884 15.4593 61.1879C15.626 62.5141 15.7928 63.8403 16.088 65.1298C16.0599 65.146 16.0319 65.1622 16.0643 65.2184C16.0967 65.2745 16.1291 65.3307 16.1615 65.3868C16.2102 65.471 16.3106 65.4505 16.3343 65.3619C16.4649 64.8748 16.253 64.2484 16.1664 63.7743C16.0257 62.8823 15.9013 62.0183 15.8049 61.1381C15.5764 59.5106 15.0467 57.9447 14.5894 56.3745C14.4921 56.206 14.207 56.2958 14.26 56.4524Z" fill="black"/>
    <path d="M16.6231 59.7673C17.1042 61.2489 17.4125 62.7554 17.737 64.2901C17.9133 65.0493 18.0615 65.8247 18.2659 66.5677C18.4011 67.126 18.452 67.7329 18.6153 68.2751C18.6358 68.3755 18.7643 68.3387 18.76 68.2664C18.9195 67.0513 18.2818 65.6226 18.0351 64.4174C17.6944 62.8547 17.3818 61.2758 16.8683 59.738C16.8153 59.5814 16.5864 59.6387 16.6231 59.7673Z" fill="black"/>
    <path d="M19.0725 62.5832C19.3678 63.8726 19.5346 65.1989 19.7575 66.4927C19.8689 67.1396 19.9523 67.8027 20.0357 68.4658C20.1104 68.9842 20.44 69.8794 20.2652 70.3547C20.2534 70.399 20.3301 70.467 20.37 70.4065C20.5579 70.1483 20.4843 69.8913 20.4507 69.5738C20.363 68.8383 20.2472 68.119 20.1314 67.3998C19.903 65.7722 19.6865 64.1004 19.3296 62.5097C19.3047 62.3369 19.0477 62.4104 19.0725 62.5832Z" fill="black"/>
    <path d="M20.9325 63.0816C21.3056 64.7004 21.3256 66.4857 21.4979 68.1457C21.5532 68.825 21.6927 69.4557 21.748 70.135C21.7448 70.324 21.9292 72.9127 21.6473 72.8135C21.603 72.8016 21.5631 72.8621 21.5793 72.8902C21.6117 72.9463 21.6441 73.0025 21.7046 73.0424C21.7371 73.0986 21.8699 73.1342 21.8936 73.0456C22.1764 72.4331 22.0887 71.6977 22.0496 71.0464C22.0212 70.0895 21.8525 69.2137 21.7398 68.3054C21.519 66.5612 21.5389 64.7155 21.1171 63.0124C21.1246 62.8957 20.9238 62.9369 20.9325 63.0816Z" fill="black"/>
    <path d="M22.895 66.7401C23.2595 68.2142 23.3788 69.7175 23.5542 71.1885C23.6376 71.8516 23.6767 72.5028 23.6715 73.1422C23.6726 73.4036 23.7239 74.9836 23.3479 74.5269C23.3317 74.4988 23.2313 74.5194 23.2637 74.5755C23.3534 74.8606 23.3048 74.7764 23.5068 74.9967C23.5835 75.0647 23.6678 75.0161 23.7358 74.9394C24.189 73.7793 23.9736 72.3688 23.8156 71.1873C23.6358 69.644 23.4884 68.1569 23.1078 66.6547C23.0991 66.51 22.8702 66.5673 22.895 66.7401Z" fill="black"/>
    <path d="M24.5483 69.6038C24.863 70.7323 25.0329 71.8695 25.2028 73.0067C25.3479 73.9711 25.8819 75.6094 25.4319 76.5805C25.3919 76.6409 25.4967 76.6928 25.5366 76.6323C26.0159 75.9063 25.6969 74.7054 25.6049 73.8976C25.4014 72.4429 25.2259 70.9719 24.8053 69.5302C24.7243 69.3899 24.5116 69.4752 24.5483 69.6038Z" fill="black"/>
    <path d="M25.9226 71.2061C26.3464 72.4588 26.6255 73.7202 26.7641 75.0626C26.7977 75.3801 27.2091 78.3619 26.8354 78.4279C26.8073 78.4442 26.7955 78.4884 26.8398 78.5003C26.884 78.5122 26.9283 78.524 26.9726 78.5359C27.0169 78.5478 27.045 78.5316 27.0568 78.4873C27.3535 77.3801 27.1262 76.014 26.9844 74.8606C26.8501 73.5905 26.571 72.3291 26.1354 71.1207C26.0867 71.0365 25.8859 71.0776 25.9226 71.2061Z" fill="black"/>
    <path d="M28.1094 73.7618C28.3754 74.8061 28.5691 75.8548 28.6623 76.924C28.6884 77.3581 28.7144 77.7923 28.7405 78.2264C28.761 78.3269 28.7697 78.4716 28.7903 78.572C28.7946 78.6444 28.8242 79.8627 28.4687 79.5064C28.4363 79.4502 28.3683 79.5269 28.3845 79.555C28.781 80.1121 29.1069 79.2502 29.0852 78.8884C29.0415 77.1917 28.7557 75.3352 28.266 73.7088C28.2735 73.5922 28.0888 73.6614 28.1094 73.7618Z" fill="black"/>
    <path d="M29.6521 75.2669C30.0154 76.4796 30.1292 77.6493 30.2192 78.9075C30.254 79.4863 30.3049 80.0933 30.3839 80.6841C30.4088 80.8569 30.54 82.3159 30.3304 82.2123C30.2699 82.1724 30.23 82.2329 30.2624 82.289C30.2948 82.3452 30.3553 82.3851 30.404 82.4693C30.4364 82.5255 30.5368 82.5049 30.5768 82.4444C30.7721 82.0696 30.7623 81.6635 30.7081 81.2456C30.6366 80.5382 30.5489 79.8027 30.5055 79.0791C30.3949 77.7205 30.293 76.5065 29.9091 75.1934C29.8562 75.0368 29.5991 75.1103 29.6521 75.2669Z" fill="black"/>
    <path d="M31.7579 77.6823C31.8674 78.7795 32.0934 79.8843 32.1305 80.9859C32.1522 81.3477 32.4964 83.6945 31.91 83.8459C31.8377 83.8503 31.8582 83.9507 31.9306 83.9464C32.6143 83.9634 32.4649 82.9266 32.4388 82.4925C32.327 80.8725 32.1754 79.313 32.0074 77.7254C32.0106 77.5364 31.7773 77.5213 31.7579 77.6823Z" fill="black"/>
    <path d="M33.2314 79.0026C33.4942 80.2359 33.729 81.4855 33.819 82.7437C33.8321 82.9608 34.1062 85.8346 33.6029 85.676C33.5586 85.6641 33.5186 85.7246 33.5349 85.7527C33.5511 85.7808 33.5673 85.8089 33.5997 85.865C33.6159 85.8931 33.6764 85.933 33.7045 85.9168C34.415 85.6563 34.1716 84.2621 34.125 83.7275C34.0132 82.1075 33.801 80.508 33.416 78.9334C33.4354 78.7725 33.2065 78.8298 33.2314 79.0026Z" fill="black"/>
    <path d="M35.1589 81.1092C35.2976 82.4516 35.4082 83.8102 35.4745 85.157C35.5093 85.7359 35.5159 86.331 35.4945 86.9423C35.4795 87.1756 35.4925 87.3927 35.4775 87.626C35.4624 87.8592 35.5695 88.4338 35.1935 87.9771C35.1611 87.9209 35.0607 87.9415 35.0812 88.0419C35.1828 88.2827 35.1666 88.2546 35.2682 88.4954C35.3007 88.5516 35.3892 88.5753 35.4454 88.5429C36.0188 88.1744 35.8196 86.7921 35.8173 86.2693C35.7735 84.5726 35.585 82.8846 35.4247 81.1804C35.3954 80.9352 35.134 80.9364 35.1589 81.1092Z" fill="black"/>
    <path d="M37.0845 83.666C37.0891 84.7115 37.2104 85.7645 37.187 86.8261C37.1731 87.3208 37.143 87.7874 37.1129 88.2539C37.0904 88.6039 37.2073 89.5845 36.9309 89.819C36.8747 89.8514 36.9515 89.9194 36.9795 89.9032C37.2203 89.8016 37.216 89.7292 37.2753 89.5078C37.4059 89.0207 37.3181 88.2852 37.3601 87.7743C37.4504 86.3746 37.3117 85.0322 37.3015 83.653C37.3209 83.492 37.0758 83.5213 37.0845 83.666Z" fill="black"/>
    <path d="M38.2879 84.8429C38.6133 85.6658 38.6049 86.4941 38.6851 87.3463C38.7522 87.9813 38.8637 88.6282 38.9589 89.247C39.0672 90.0829 39.0869 90.8951 39.1066 91.7073C39.1034 91.8963 39.1752 93.5768 38.9657 93.4732C38.9052 93.4332 38.8091 93.5261 38.8858 93.5942L39.0392 93.7302C39.0997 93.7701 39.144 93.782 39.1839 93.7215C39.4074 93.3305 39.4051 92.8077 39.4071 92.3574C39.4111 91.4566 39.3871 90.5721 39.2744 89.6638C39.178 88.7836 38.9812 87.924 38.9291 87.0556C38.8532 86.2759 38.8497 85.4918 38.5449 84.7694C38.4639 84.629 38.2349 84.6863 38.2879 84.8429Z" fill="black"/>
    <path d="M40.1786 86.8209C40.313 88.0909 40.4473 89.361 40.5255 90.6635C40.5764 91.2705 40.5993 91.8936 40.6222 92.5168C40.6309 92.6615 40.7545 94.2372 40.4402 94.0818C40.3797 94.0419 40.356 94.1304 40.3722 94.1585C40.4813 94.2827 40.437 94.2708 40.6141 94.3183C40.6584 94.3301 40.7146 94.2977 40.7264 94.2534C41.1808 93.3547 40.8899 92.1376 40.8173 91.1689C40.7304 89.7217 40.5992 88.2626 40.4119 86.8359C40.4032 86.6912 40.17 86.6761 40.1786 86.8209Z" fill="black"/>
    <path d="M41.7196 89.7494C41.8452 90.8747 42.0432 91.9958 42.1127 93.1535C42.1474 93.7324 42.1541 94.3275 42.1446 94.8945C42.1437 95.6063 42.3232 96.1764 41.9562 96.8375C41.9443 96.8818 42.0048 96.9218 42.0167 96.8775C42.6407 96.1429 42.4016 94.821 42.4056 93.9202C42.363 92.4849 42.1077 91.1349 41.9647 89.7202C41.9279 89.5916 41.6947 89.5766 41.7196 89.7494Z" fill="black"/>
    <path d="M43.7741 90.5847C44.0132 91.9066 44.0352 93.2415 44.1296 94.572C44.1991 95.7298 44.5181 96.9307 44.0486 98.0627C44.0368 98.107 44.0973 98.1469 44.1534 98.1145C44.9178 97.2988 44.5134 95.8852 44.4245 94.8884C44.2653 93.4455 44.2789 91.9778 43.9749 90.5436C43.9382 90.4151 43.7373 90.4562 43.7741 90.5847Z" fill="black"/>
    <path d="M45.749 92.514C45.9169 94.1016 46.0967 95.6449 46.2365 97.2487C46.2994 97.8114 46.5112 98.4377 46.5017 99.0048C46.4965 99.6441 46.311 100.425 46.1892 101.057C46.1935 101.129 46.2821 101.153 46.2777 101.081C46.4601 100.489 46.5819 99.8569 46.6638 99.2855C46.7338 98.7584 46.5749 98.2887 46.5002 97.7703C46.2513 96.0423 46.1027 94.2938 45.9261 92.5615C45.9175 92.4168 45.7285 92.4136 45.749 92.514Z" fill="black"/>
    <path d="M47.6184 95.1034C47.782 96.6186 48.0297 98.0852 48.1933 99.6004C48.281 100.336 48.3245 101.059 48.2955 101.787C48.301 102.121 48.2623 102.443 48.2397 102.793C48.2041 102.926 48.2128 103.071 48.2215 103.215C48.2907 103.4 48.2507 103.46 48.0174 103.445C48.0293 103.401 47.9407 103.377 47.9289 103.422C47.8976 103.627 47.915 103.916 48.2163 103.855C48.6623 103.784 48.4924 102.647 48.4912 102.386C48.6935 99.948 48.0674 97.502 47.8074 95.1065C47.8549 94.9294 47.5935 94.9306 47.6184 95.1034Z" fill="black"/>
    <path d="M49.4553 97.6365C49.7633 98.17 49.7505 98.926 49.8458 99.5448C49.9778 100.292 50.0936 101.011 50.1532 101.763C50.2714 103.005 50.221 104.344 50.0497 105.604C50.0378 105.648 50.1102 105.644 50.1221 105.599C50.3325 104.991 50.2934 104.34 50.3429 103.712C50.388 103.013 50.4331 102.313 50.3454 101.577C50.2253 100.786 50.0609 99.9822 49.9126 99.2067C49.8217 98.6603 49.787 98.0814 49.4834 97.6203C49.4952 97.576 49.4391 97.6085 49.4553 97.6365Z" fill="black"/>
    <path d="M51.5996 99.7301C51.7168 101.684 52.0836 103.681 51.8509 105.612C51.7699 105.471 51.7331 105.343 51.7331 105.343C51.7007 105.287 51.6165 105.335 51.6489 105.392C51.7343 105.604 51.7635 105.849 51.8208 106.078C51.8414 106.179 52.0304 106.182 52.0379 106.065C52.4952 104.005 51.8983 101.804 51.7443 99.7214C51.768 99.6328 51.6233 99.6415 51.5996 99.7301Z" fill="black"/>
    <path d="M52.9792 100.693C53.4181 101.712 53.2954 103.056 53.4609 104.121C53.5151 104.539 53.6815 104.892 53.6914 105.298C53.7131 105.66 53.4833 106.429 53.6778 106.766C53.6454 106.71 53.5892 106.742 53.5936 106.814C53.6098 106.842 53.6098 106.842 53.626 106.871C53.6584 106.927 53.7308 106.922 53.7426 106.878C53.8894 106.419 53.9033 105.924 53.9333 105.458C53.9828 104.83 53.7191 104.309 53.6801 103.657C53.5631 102.677 53.566 101.515 53.1758 100.58C53.1109 100.467 52.9425 100.564 52.9792 100.693Z" fill="black"/>
    <path d="M54.5985 101.293C54.7953 102.153 54.9597 102.956 55.0561 103.836C55.0865 104.343 55.4217 105.572 55.1746 106.051C55.1627 106.096 55.2232 106.136 55.2513 106.119C55.6875 105.643 55.3578 104.748 55.2949 104.185C55.1898 103.16 55.0329 102.24 54.7993 101.252C54.7464 101.095 54.5617 101.164 54.5985 101.293Z" fill="black"/>
    <path d="M56.4042 101.373C56.4508 101.908 56.586 102.466 56.7331 102.98C56.7947 103.282 56.8845 103.567 56.918 103.884C56.9386 103.985 56.9473 104.129 56.9678 104.23C57.0975 104.454 57.0176 104.575 56.8005 104.588C56.7681 104.532 56.712 104.565 56.7444 104.621C56.7811 104.749 56.8298 104.834 56.9227 104.93C56.9389 104.958 56.9832 104.97 57.0113 104.953C57.2995 104.675 57.1406 104.205 57.0628 103.876C56.9102 103.028 56.6453 102.245 56.5209 101.381C56.5003 101.28 56.3556 101.289 56.4042 101.373Z" fill="black"/>
    <path d="M57.9847 99.6373C58.2409 100.276 58.3523 100.922 58.4519 101.614C58.5547 102.116 58.7148 102.847 58.5443 103.395C58.5044 103.455 58.6091 103.507 58.6491 103.446C59.0378 103.147 58.8496 102.432 58.7955 102.014C58.6872 101.178 58.5628 100.314 58.2255 99.5357C58.1564 99.351 57.9037 99.4969 57.9847 99.6373Z" fill="black"/>
    <path d="M60.2782 98.1634C60.4933 98.6007 60.4956 99.1234 60.5822 99.5975C60.6687 100.072 61.0222 100.878 60.6259 101.294C60.586 101.355 60.6465 101.395 60.7026 101.362C61.1194 101.047 61.0004 100.517 60.9139 100.042C60.7582 99.3836 60.759 98.6719 60.4467 98.0661C60.3981 97.9819 60.2296 98.0791 60.2782 98.1634Z" fill="black"/>
    <path d="M61.8991 97.3399C62.0343 97.8982 62.1975 98.4403 62.3327 98.9987C62.3944 99.3 62.4118 99.5894 62.4734 99.8907C62.4896 99.9188 62.5794 100.204 62.5513 100.22C62.5394 100.264 62.5718 100.321 62.628 100.288C62.6561 100.272 62.6841 100.256 62.7122 100.239C62.7403 100.223 62.7522 100.179 62.736 100.151C62.619 99.1703 62.4178 98.2383 62.1561 97.2664C62.1032 97.1098 61.8461 97.1833 61.8991 97.3399Z" fill="black"/>
    <path d="M63.8537 96.5108C64.1012 97.0043 64.164 97.567 64.283 98.0973C64.3565 98.3543 64.4301 98.6113 64.4593 98.8565C64.4723 99.0735 64.4486 99.1621 64.5621 99.3586C64.5783 99.3867 64.6506 99.3824 64.6344 99.3543C64.6321 98.8316 64.5056 98.418 64.4028 97.9158C64.3001 97.4136 64.2135 96.9395 64.0103 96.4579C63.9736 96.3293 63.8051 96.4266 63.8537 96.5108Z" fill="black"/>
    <path d="M70.3495 91.4877C70.5258 92.2469 70.6016 93.0267 70.8222 93.7978C70.9854 94.3399 70.9802 94.9793 71.2439 95.5008C71.2601 95.5289 71.3325 95.5246 71.3163 95.4965C71.261 94.8172 71.2587 94.2945 71.0587 93.6238C70.8586 92.9532 70.7903 92.0568 70.3938 91.4996C70.4056 91.4553 70.3333 91.4597 70.3495 91.4877Z" fill="black"/>
    <path d="M72.3042 90.6588C72.8241 91.8185 72.9109 93.2657 73.1738 94.499C73.1781 94.5714 73.2786 94.5508 73.2742 94.4785C73.3075 93.8229 73.1442 93.2808 73.0328 92.6339C72.8889 91.9308 72.8012 91.1954 72.5007 90.5453C72.4478 90.3887 72.2232 90.5184 72.3042 90.6588Z" fill="black"/>
    <path d="M73.2798 88.5232C73.509 89.439 73.6379 90.3754 73.8509 91.2631C73.9331 91.6648 74.3881 92.7123 73.9713 93.0278C73.9152 93.0602 73.9476 93.1164 74.02 93.112C74.5945 93.0049 74.3945 92.3343 74.3123 91.9325C74.0257 90.7878 73.8633 89.5339 73.4201 88.4422C73.3597 88.4022 73.2474 88.4671 73.2798 88.5232Z" fill="black"/>
    <path d="M74.7315 88.5087C74.9165 89.4126 75.1414 90.256 75.3544 91.1437C75.522 91.7582 75.6054 92.4213 75.8572 92.9872C75.8896 93.0433 75.962 93.039 75.9577 92.9666C76.1119 92.3909 75.7996 91.7851 75.6644 91.2268C75.4352 90.311 75.1897 89.3671 74.9885 88.4351C74.9355 88.2786 74.7066 88.3359 74.7315 88.5087Z" fill="black"/>
    <path d="M77.0077 87.7185C76.8911 87.711 76.8599 87.9161 77.0046 87.9074C77.499 87.9213 77.3957 89.1035 77.7186 89.4035C77.7348 89.4316 77.8352 89.411 77.8028 89.3549C77.6645 88.9857 77.5985 88.6122 77.4764 88.2711C77.431 87.998 77.2971 87.7011 77.0077 87.7185Z" fill="black"/>
    <path d="M67.6135 15.1672C67.5056 15.3044 67.3976 15.4417 67.4225 15.6144C67.443 15.7149 67.5079 15.8272 67.6008 15.9233C70.3051 19.116 73.2297 22.1068 76.3584 24.8674C76.5118 25.0035 76.6933 25.1233 76.8823 25.1265C77.0993 25.1134 77.2915 24.9276 77.4114 24.7461C79.1948 22.5185 81.0301 20.1861 83.5008 18.7597C84.8484 17.9817 86.438 17.3634 87.051 15.9613C87.6166 14.7364 87.2078 13.2504 86.4428 12.1199C85.6778 10.9893 84.5964 10.1537 83.6392 9.209C82.4357 8.03215 81.4834 5.47495 80.0683 4.64486C78.6532 3.81477 76.9018 5.12542 75.6308 5.97148C72.4239 8.19737 70.061 12.1445 67.6135 15.1672Z" fill="#91AA9D"/>
    <path d="M76.6415 2.73004C76.5324 2.60587 76.2948 2.51846 76.1382 2.57143C74.8855 2.9952 74.049 4.78831 73.1885 5.69689C72.4922 6.43585 71.6586 7.06685 70.9784 7.83389C69.6588 8.59573 68.6864 10.5423 67.6855 11.5319C66.8088 12.4124 64.04 13.7115 64.1668 15.0982C64.2265 15.8499 65.3802 16.6811 65.861 17.1897C66.7134 18.0826 67.5777 18.9312 68.4982 19.7474C70.5411 21.6001 72.3444 23.8157 74.4952 25.5312C74.7858 25.7752 75.0634 25.8021 75.3885 25.6519C76.5645 25.1601 77.1257 23.8628 77.8695 22.9467C78.6976 21.9819 79.7957 21.1608 80.668 20.2079C82.9731 17.7166 85.4846 15.518 87.5271 12.7665C87.6868 12.5245 87.609 12.1951 87.4232 12.0029C84.3353 8.47007 79.5415 6.52108 76.6415 2.73004ZM79.2142 19.6997C78.3137 20.6688 77.2113 21.4176 76.4037 22.4827C76.176 22.8014 75.7821 23.7401 75.3685 23.8666C74.8706 24.0417 74.9019 23.8365 74.3649 23.3604C73.8118 22.8562 73.2425 22.3239 72.6332 21.8521C71.2288 20.7164 69.9885 19.411 68.624 18.2148C67.9499 17.6307 67.2758 17.0466 66.6297 16.4464C66.3229 16.1743 66.0442 15.886 65.7536 15.642C65.0795 15.0579 65.1368 15.2869 65.6485 14.6171C66.632 13.338 68.2453 12.6312 69.2569 11.3359C69.6088 10.9081 69.9521 10.3356 70.2954 9.76305C70.3839 9.78678 70.5125 9.75002 70.6085 9.65711C71.8708 8.66632 73.0433 7.39042 74.1197 6.20745C74.5559 5.73101 75.6774 3.84817 76.1796 3.74541C76.0068 3.77031 77.0601 4.62211 77.3345 4.83803C78.6341 5.92196 79.9456 6.96161 81.2852 7.98505C82.2736 8.72455 83.0213 9.56564 83.9579 10.4099L83.9741 10.438C83.9461 10.4542 83.9342 10.4985 83.9504 10.5266C83.8879 10.937 83.6644 11.328 83.6181 11.7665C83.5362 12.3379 83.382 12.9136 83.2558 13.4731C83.191 13.3608 83.1542 13.2323 83.0613 13.1362C82.9035 12.9278 82.5611 12.7886 82.2749 12.617C82.4477 12.5921 82.6485 12.551 82.749 12.5304C83.1021 12.364 83.2737 12.0777 83.4572 11.7472C83.7443 11.2071 84.0196 10.7112 83.3747 10.3723C83.2256 10.3086 82.9848 10.4102 83.0702 10.623C83.1232 10.7796 82.7918 11.3078 82.6838 11.445C82.388 11.8404 82.0499 11.7735 81.6688 11.9562C81.3156 12.1226 81.0598 12.4575 81.3029 12.8786C81.7038 13.5082 82.5235 13.3718 82.5918 14.2682C82.6191 14.9638 82.4292 15.6723 82.3279 16.4046C81.259 17.4709 80.2226 18.5934 79.2142 19.6997ZM86.1424 12.4429C85.2657 13.3234 84.4171 14.1877 83.5566 15.0963C83.5878 14.8911 83.6353 14.7139 83.6946 14.4925C83.877 13.9006 84.0755 13.3368 84.2578 12.7449C84.4002 12.2134 84.4983 11.6701 84.5079 11.1031C84.5035 11.0308 84.4992 10.9584 84.5111 10.9141C85.0923 11.4021 85.6573 11.862 86.1424 12.4429Z" fill="black"/>
    <path d="M76.1802 8.34954C75.6554 8.80224 75.687 9.57014 75.2109 10.1071C74.7067 10.6602 73.8794 10.9132 73.3148 11.4264C72.722 11.9558 72.4155 12.6568 71.8994 13.2542C71.6835 13.5286 71.4557 13.8473 71.2236 14.0936C70.7313 14.6025 70.5174 14.4265 70.0152 14.5293C69.9871 14.5455 69.9752 14.5898 70.0195 14.6016C70.8523 14.6824 70.9776 14.8346 71.5779 14.1886C71.8499 13.8818 72.1544 13.6311 72.3822 13.3124C72.7342 12.8846 72.9651 12.3769 73.3614 11.961C73.9779 11.343 74.9055 11.0695 75.5058 10.4234C75.9819 9.88649 76.0951 9.10991 76.3174 8.45751C76.3692 8.35273 76.2644 8.30092 76.1802 8.34954Z" fill="black"/>
    <path d="M77.325 9.03605C76.9114 9.16254 76.716 9.53738 76.4883 9.85606C76.0446 10.4491 75.7013 11.0217 75.2738 11.6428C74.1554 13.3367 72.9798 14.8016 71.2272 15.8508C71.1149 15.9157 71.2284 16.1122 71.3407 16.0473C72.7045 15.2974 73.8869 14.4276 74.7375 13.1129C75.2168 12.387 75.6799 11.633 76.1592 10.907C76.3589 10.6046 76.7583 9.99963 77.1427 9.62797C77.187 9.63984 77.2312 9.65169 77.2593 9.63548C77.3554 9.54257 77.4234 9.46588 77.5033 9.34489C77.6113 9.20769 77.5097 8.96687 77.325 9.03605Z" fill="black"/>
    <path d="M78.1381 10.9625C76.0313 11.9169 74.4573 14.2481 73.4892 16.2669C73.4255 16.416 73.6513 16.5477 73.715 16.3986C74.7673 14.3311 76.4159 12.5183 78.1867 11.0467C78.2429 11.0143 78.1942 10.9301 78.1381 10.9625Z" fill="black"/>
    <path d="M66.9714 13.6662C67.3248 14.4729 67.6588 15.4405 67.7833 16.3045C67.8537 16.7505 67.8797 17.1846 67.9782 17.6145C68.0722 17.9719 68.2225 18.297 68.2885 18.6706C68.2928 18.743 68.3932 18.7224 68.4051 18.6781C68.5 18.3239 68.4352 18.2116 68.3573 17.8822C68.2384 17.3519 68.1755 16.7893 68.0846 16.2428C67.9277 15.3227 67.6099 14.3831 67.2241 13.5203C67.1268 13.3519 66.9022 13.4815 66.9714 13.6662Z" fill="black"/>
    <path d="M68.6384 15.0621C69.0373 16.142 69.4243 17.2662 69.767 18.3786C69.914 18.8926 70.0049 19.4391 70.2243 19.9488C70.4113 20.4023 70.5896 20.7111 70.8846 21.0275C70.8684 20.9994 70.8122 21.0318 70.8284 21.0599C70.8446 21.088 70.8609 21.1161 70.8328 21.1323C70.8652 21.1884 70.9656 21.1679 70.9332 21.1117C70.3169 19.0717 69.6845 17.0037 68.9116 15.0167C68.8262 14.804 68.5411 14.8937 68.6384 15.0621Z" fill="black"/>
    <path d="M70.7781 16.1102C71.3466 17.3542 71.7423 18.6231 72.1261 19.9363C72.2732 20.4503 72.4084 21.0086 72.6278 21.5183C72.6808 21.6749 73.1876 22.6176 73.0678 22.7991C73.0278 22.8596 73.0883 22.8995 73.1445 22.8671C73.1725 22.8509 73.2006 22.8347 73.2287 22.8185C73.2568 22.8023 73.2686 22.758 73.2805 22.7137C73.1387 21.5603 72.6069 20.4448 72.2804 19.3606C71.9215 18.2202 71.5183 17.0679 71.0027 15.9805C70.9217 15.8401 70.7252 15.9536 70.7781 16.1102Z" fill="black"/>
    <path d="M73.2749 18.7489C73.745 19.5631 74.0585 20.4303 74.3158 21.3299C74.4791 21.872 74.974 22.859 74.8198 23.4347C74.8079 23.479 74.8846 23.547 74.9245 23.4865C75.3489 23.0543 74.8464 22.184 74.7037 21.7423C74.4052 20.6419 74.0668 19.6019 73.4833 18.5912C73.4465 18.4627 73.1938 18.6086 73.2749 18.7489Z" fill="black"/>
    <path d="M74.9869 19.4451C75.3122 20.2679 75.4367 21.1319 75.7178 21.9429C75.8929 22.4408 76.2906 23.2593 76.0154 23.7551C75.9754 23.8156 76.0359 23.8556 76.1083 23.8512C76.618 23.6318 76.418 22.9612 76.2915 22.5476C76.1282 22.0054 75.8807 21.5119 75.7337 20.9979C75.5985 20.4396 75.4353 19.8975 75.1996 19.3597C75.1629 19.2312 74.9501 19.3165 74.9869 19.4451Z" fill="black"/>
    <path d="M76.9819 19.5286C77.3085 20.6128 77.5227 21.7619 77.793 22.8786C77.765 22.8948 77.7812 22.9229 77.7974 22.9509C77.8136 22.979 77.8298 23.0071 77.8298 23.0071C77.8622 23.0632 77.9508 23.087 77.9745 22.9984C78.1818 22.5793 77.9948 22.1257 77.8683 21.7121C77.6639 20.9691 77.5438 20.1775 77.3113 19.4507C77.2141 19.2823 76.9128 19.3439 76.9819 19.5286Z" fill="black"/>
    <path d="M78.0819 18.2571C78.5045 19.2484 78.6183 20.418 78.7839 21.4829C78.7839 21.4829 78.7839 21.4829 78.772 21.5272C78.7882 21.5553 78.7882 21.5553 78.7764 21.5995C78.7969 21.7 78.8973 21.6794 78.9373 21.6189C79.205 21.2398 78.9089 20.662 78.8548 20.2441C78.739 19.5248 78.6232 18.8056 78.3065 18.1274C78.2654 17.9265 78.0127 18.0724 78.0819 18.2571Z" fill="black"/>
    <path d="M79.0492 16.95C78.9282 16.8701 78.7759 16.9954 78.885 17.1196C79.7936 17.98 79.1332 19.5593 79.9974 20.4079C80.0299 20.464 80.1141 20.4154 80.1097 20.343C79.6828 19.2794 80.0139 17.778 79.0492 16.95Z" fill="black"/>
    <path d="M90.5476 62.6067C91.6654 62.5977 92.7552 62.6049 93.873 62.5959C94.1262 60.7652 93.4506 58.9467 92.7793 57.2005C90.037 49.9868 87.3659 42.5074 83.3795 35.8621C80.5876 39.196 82.6731 42.484 84.0481 46.0325C84.715 47.7064 89.5464 62.6232 90.5476 62.6067Z" fill="#BEEB9F"/>
    <path d="M94.3112 58.0381C93.7644 57.1559 92.4723 55.9553 92.1576 54.8268C92.4621 54.5761 92.3874 54.0577 92.113 53.8418L91.8549 53.6539C91.4433 53.3301 90.6647 53.6673 90.7718 54.2418C91.1492 55.933 92.4607 56.9727 93.3879 58.384C93.9627 59.25 94.5462 60.2607 93.972 61.3409C93.972 61.3409 93.9439 61.3571 93.9601 61.3852C93.6055 60.3171 93.0058 59.2784 92.6405 58.516C91.5446 56.2288 90.4207 53.9579 89.2524 51.6751C88.0518 49.3361 86.7776 46.7402 85.8739 44.2672C85.0924 42.1355 84.4793 39.9065 83.485 37.8601C83.3672 37.5913 83.1133 37.4758 82.8282 37.5655C82.7278 37.5861 82.6436 37.6347 82.5431 37.6552L82.515 37.6714C82.4988 37.6434 82.4826 37.6153 82.4826 37.6153C82.4178 37.503 82.3648 37.3464 82.3281 37.2179C82.2059 36.8766 81.9865 36.3669 81.7121 36.151C81.3286 35.8109 80.9711 35.905 80.5781 36.132C80.6623 36.0833 80.4915 35.6579 80.3737 35.389C80.3045 35.2043 80.2559 35.1201 80.1867 34.9354C80.1456 34.7345 80.1369 34.5898 79.9554 34.47C79.7902 34.3782 79.585 34.347 79.4327 34.4723C79.4046 34.4885 79.4208 34.5166 79.3928 34.5328C79.2567 34.6862 79.125 34.912 79.2266 35.1528C79.4741 35.6463 79.6698 36.2446 79.9897 36.7337C79.8449 36.7424 79.6721 36.7673 79.5037 36.8646C79.3914 36.9294 79.3158 37.1227 79.3526 37.2512C79.4186 37.6249 79.5688 37.95 79.7914 38.2707C79.8887 38.4391 80.2074 38.6669 80.337 38.8915C80.0001 39.086 79.7075 39.2924 79.6407 39.6305C79.5382 40.1014 80.0601 40.8108 80.2471 41.2644C80.8005 42.7417 81.354 44.219 81.807 45.7168C83.3898 50.7924 85.6151 55.6842 87.6795 60.5567C88.2199 61.8169 88.7604 63.0771 89.3731 64.333C89.7179 64.9949 89.7266 65.1396 90.4233 65.3738C91.9538 65.95 93.3987 65.3404 94.0754 63.7893C94.2664 63.3421 94.2803 62.8474 94.2056 62.3291C94.7671 62.0049 95.1741 61.2833 95.1955 60.672C95.1952 59.6989 94.7769 58.7799 94.3112 58.0381ZM80.2945 37.4562C80.4111 37.4637 80.5115 37.4431 80.64 37.4064C80.8247 37.3372 81.0655 37.2356 81.2178 37.1102C81.2178 37.1102 81.2458 37.094 81.2739 37.0778C81.3387 37.1901 81.4198 37.3305 81.4403 37.431C81.5095 37.6156 81.5831 37.8726 81.7289 38.1253C81.6447 38.1739 81.5324 38.2388 81.4201 38.3036C81.2517 38.4009 81.0109 38.5025 80.742 38.6203C80.7333 38.4756 80.6965 38.3471 80.6597 38.2185C80.5139 37.9659 80.3842 37.7412 80.2945 37.4562ZM85.0327 51.3038C83.9324 48.9443 83.1292 46.4508 82.1974 43.994C81.8191 43.0146 80.7374 41.2059 80.7446 40.1161C80.7454 39.4044 80.5588 39.9239 81.0954 39.4269C81.3437 39.2087 81.7324 38.9094 82.1536 38.6663C82.2746 38.7462 82.4355 38.7655 82.6482 38.6802C82.6763 38.6639 82.7044 38.6477 82.7324 38.6315C83.4187 40.1444 84.0457 41.8787 84.5592 43.4165C85.3376 45.7373 86.5857 47.8991 87.5487 50.1506C88.0892 51.4109 88.73 52.6505 89.3709 53.8902C89.2542 53.8827 89.1095 53.8914 88.9529 53.9443C88.6397 54.0503 88.3309 54.2286 88.0501 54.3907C87.6009 54.65 87.168 54.9374 86.8722 55.3328C86.2993 54.0165 85.666 52.6602 85.0327 51.3038ZM91.262 64.1034C90.1885 64.1243 90.3578 63.3153 89.9277 62.4406C89.2619 61.0281 88.5238 59.62 87.9866 58.1708C87.7585 57.5164 87.5185 56.9062 87.2343 56.2842C87.7396 55.9924 88.2126 55.6445 88.7061 55.397C88.9026 55.2836 89.1553 55.1377 89.3723 55.1247C89.5732 55.0835 89.7061 55.1192 89.9069 55.078C90.2193 55.6838 90.4873 56.2778 90.7716 56.8998C91.4416 58.3846 94.4945 63.9965 91.262 64.1034Z" fill="black"/>
    <path d="M80.717 38.4476C80.8565 39.0783 80.8114 39.7781 80.8505 40.4294C80.8852 41.0083 80.7958 41.6962 81.0034 42.2502C81.0358 42.3064 81.1244 42.3301 81.12 42.2578C81.2094 41.5698 81.2146 40.9304 81.1712 40.2068C81.1202 39.5998 81.1535 38.9442 80.9298 38.3622C80.893 38.2337 80.7083 38.3028 80.717 38.4476Z" fill="black"/>
    <path d="M81.9782 40.8264C82.1837 41.8308 82.0275 42.8569 81.9878 43.8905C81.9546 44.5461 82.0379 45.2092 81.8718 45.8292C81.8275 45.8173 81.8275 45.8173 81.8157 45.8616C81.7919 45.9501 81.7963 46.0225 81.7725 46.1111C81.765 46.2277 81.9259 46.2471 81.9497 46.1585C82.2886 45.5136 82.1685 44.722 82.1855 44.0384C82.1927 42.9486 82.3609 41.8782 82.1348 40.7735C82.1423 40.6568 81.9857 40.7098 81.9782 40.8264Z" fill="black"/>
    <path d="M83.3244 42.445C83.4034 43.0357 83.2491 43.6114 83.2115 44.1946C83.1502 44.8664 83.0888 45.5382 82.8666 46.1907C82.8428 46.2792 83.0081 46.371 83.0599 46.2662C83.3265 45.6257 83.404 44.9819 83.4654 44.3101C83.5429 43.6664 83.6928 43.0183 83.5814 42.3714C83.5284 42.2149 83.2714 42.2884 83.3244 42.445Z" fill="black"/>
    <path d="M84.2432 44.6846C84.1332 45.2722 84.1842 45.8792 84.1023 46.4505C84.0129 47.1385 84.0682 47.8178 84.023 48.5177C84.0155 48.6344 84.2207 48.6656 84.2283 48.549C84.3987 48.0013 84.2592 47.3707 84.2968 46.7874C84.3582 46.1156 84.3428 45.3758 84.4204 44.7321C84.4722 44.6273 84.2788 44.5518 84.2432 44.6846Z" fill="black"/>
    <path d="M85.0365 46.772C84.9167 46.9535 84.9372 47.0539 84.9783 47.2548C85.0368 47.7451 84.9625 48.1999 84.9043 48.6826C84.8461 49.1654 84.8884 49.6277 84.814 50.0824C84.759 50.3762 84.5281 50.8839 84.7182 51.1484C84.6858 51.0923 84.6016 51.1409 84.634 51.197C84.6502 51.2251 84.6502 51.2251 84.6383 51.2694C84.6708 51.3255 84.7431 51.3212 84.755 51.2769C85.0216 50.6364 85.1228 49.9041 85.1118 49.2366C85.102 48.8305 85.1807 48.4482 85.1989 48.0259C85.214 47.7926 85.0701 47.0895 85.1737 46.88C85.2817 46.7428 85.1164 46.651 85.0365 46.772Z" fill="black"/>
    <path d="M85.5459 49.2106C85.6455 49.9018 85.568 50.5455 85.579 51.2129C85.577 51.6633 85.7003 52.2659 85.3764 52.6775C85.3365 52.738 85.4013 52.8503 85.4855 52.8017C85.9023 52.4862 85.8438 51.9959 85.8297 51.5174C85.8262 50.7333 85.895 49.9449 85.763 49.1976C85.7101 49.041 85.5535 49.0939 85.5459 49.2106Z" fill="black"/>
    <path d="M86.4044 51.4103C86.6281 51.9924 86.5593 52.7809 86.5541 53.4202C86.5509 53.6092 86.5196 53.8145 86.5164 54.0035C86.5338 54.2929 86.6354 54.5337 86.5966 54.8556C86.601 54.9279 86.7176 54.9355 86.7133 54.8631C86.7564 54.6136 86.7315 54.4408 86.7303 54.1794C86.713 53.89 86.7842 53.6243 86.7668 53.3348C86.7439 52.7117 86.8171 51.9956 86.5934 51.4135C86.5685 51.2407 86.3395 51.298 86.4044 51.4103Z" fill="black"/>
    <path d="M87.0371 54.4515C87.0209 54.4234 86.9647 54.4559 86.9528 54.5001C87.1118 54.9699 87.1378 55.4041 87.2125 55.9224C87.2504 56.3123 87.4331 56.6935 87.3263 57.0921C87.3144 57.1364 87.3749 57.1763 87.4148 57.1158C87.594 56.7129 87.528 56.3392 87.4739 55.9213C87.3992 55.4029 87.3968 54.8802 87.0371 54.4515Z" fill="black"/>
</svg>