<svg xmlns="http://www.w3.org/2000/svg" width="25" height="27" viewBox="0 0 25 27" fill="none">
    <path opacity="0.4" d="M17.8078 0H6.4935C2.3895 0 0 2.403 0 6.5205V20.466C0 24.651 2.3895 27 6.4935 27H17.8078C21.978 27 24.3 24.651 24.3 20.466V6.5205C24.3 2.403 21.978 0 17.8078 0Z" fill="currentColor"/>
    <path d="M8.58397 8.25C8.96887 7.58333 9.93112 7.58333 10.316 8.25L15.0142 16.3875C15.3991 17.0542 14.918 17.8875 14.1482 17.8875H4.75181C3.98201 17.8875 3.50088 17.0542 3.88578 16.3875L8.58397 8.25Z" fill="currentColor"/>
    <path d="M15.334 10.275C15.7189 9.60833 16.6811 9.60833 17.066 10.275L20.5951 16.3875C20.98 17.0542 20.4989 17.8875 19.7291 17.8875H12.6709C11.9011 17.8875 11.42 17.0542 11.8049 16.3875L15.334 10.275Z" fill="currentColor"/>
</svg>