<svg width="17" height="17" viewBox="0 0 17 17" fill="currentColor"
    xmlns="http://www.w3.org/2000/svg">
    <path d="M9.05078 15.9141L9.75391 15.2461C9.92969 15.0703 9.92969 14.7891 9.75391 14.6484L4.30469 9.16406H16.3281C16.5391 9.16406 16.75 8.98828 16.75 8.74219V7.75781C16.75 7.54688 16.5391 7.33594 16.3281 7.33594H4.30469L9.75391 1.88672C9.92969 1.74609 9.92969 1.46484 9.75391 1.28906L9.05078 0.621094C8.91016 0.445312 8.62891 0.445312 8.45312 0.621094L1.10547 7.96875C0.929688 8.14453 0.929688 8.39062 1.10547 8.56641L8.45312 15.9141C8.62891 16.0898 8.91016 16.0898 9.05078 15.9141Z" fill="currentColor"/>
</svg>
