<svg xmlns="http://www.w3.org/2000/svg" width="20" height="23" viewBox="0 0 20 23" fill="currentColor">
  <path opacity="0.4" d="M14.6567 0H5.34444C1.96667 0 0 1.97778 0 5.36667V16.8444C0 20.2889 1.96667 22.2222 5.34444 22.2222H14.6567C18.0889 22.2222 20 20.2889 20 16.8444V5.36667C20 1.97778 18.0889 0 14.6567 0Z" fill="currentColor"/>
  <path d="M5.64445 15.2667H14.3556C14.7989 15.3111 15.1333 15.6889 15.1333 16.1444C15.1333 16.5878 14.7989 16.9667 14.3556 17.0111H5.64445C5.31111 17.0555 4.98889 16.8889 4.81111 16.6111C4.63334 16.3222 4.63334 15.9555 4.81111 15.6778C4.98889 15.3889 5.31111 15.2333 5.64445 15.2667ZM14.3556 10.1989C14.8333 10.1989 15.2222 10.5889 15.2222 11.0667C15.2222 11.5444 14.8333 11.9333 14.3556 11.9333H5.64445C5.16556 11.9333 4.77778 11.5444 4.77778 11.0667C4.77778 10.5889 5.16556 10.1989 5.64445 10.1989H14.3556ZM8.96556 5.16666C9.44445 5.16666 9.83334 5.55555 9.83334 6.03221C9.83334 6.52221 9.44445 6.9111 8.96556 6.9111H5.64445C5.16556 6.9111 4.77778 6.52221 4.77778 6.04443C4.77778 5.56666 5.16556 5.17777 5.64445 5.17777V5.16666H8.96556Z" fill="currentColor"/>
</svg>