<svg xmlns="http://www.w3.org/2000/svg" width="12" height="14" viewBox="0 0 12 14" fill="none">
    <path opacity="0.4" d="M6 7.4073C8.07107 7.4073 9.75 5.74912 9.75 3.70365C9.75 1.65818 8.07107 0 6 0C3.92893 0 2.25 1.65818 2.25 3.70365C2.25 5.74912 3.92893 7.4073 6 7.4073Z" fill="#0984E3"/>
    <path d="M11.9933 11.117C11.9967 11.0643 11.9967 11.0115 11.9933 10.9587C11.9785 10.7639 11.9232 10.5737 11.8306 10.3986C11.466 9.68632 10.444 9.36364 9.59126 9.181C8.98284 9.05434 8.36467 8.97291 7.74252 8.93747L7.09155 8.88876H6.79862H6.43407H5.56178H5.19724H4.90431L4.25334 8.93747C3.63119 8.97291 3.01301 9.05434 2.4046 9.181C1.55183 9.33929 0.529819 9.66805 0.165278 10.3986C0.0726544 10.5737 0.0173778 10.7639 0.00253714 10.9587C-0.000845715 11.0115 -0.000845715 11.0643 0.00253714 11.117C-0.000586188 11.1698 -0.000586188 11.2226 0.00253714 11.2753C0.0202434 11.4685 0.0777152 11.6566 0.171788 11.8294C0.536329 12.5417 1.55834 12.8644 2.41111 13.047C3.02066 13.1677 3.63836 13.2491 4.25985 13.2905L4.91082 13.3331H5.06705H5.20375H6.80513H6.94183H7.09806L7.74902 13.2905C8.37051 13.2491 8.98822 13.1677 9.59777 13.047C10.4505 12.8826 11.4725 12.5599 11.8371 11.8294C11.9268 11.6511 11.9819 11.4594 11.9998 11.2632C12.0007 11.2144 11.9985 11.1656 11.9933 11.117Z" fill="#0984E3"/>
</svg>