<svg width="13" height="15" viewBox="0 0 13 15" fill="none" xmlns="http://www.w3.org/2000/svg">
<path d="M7.32812 12.125H7.98438C8.14844 12.125 8.3125 11.9883 8.3125 11.7969V5.89062C8.3125 5.72656 8.14844 5.5625 7.98438 5.5625H7.32812C7.13672 5.5625 7 5.72656 7 5.89062V11.7969C7 11.9883 7.13672 12.125 7.32812 12.125ZM11.8125 2.9375H9.54297L8.61328 1.40625C8.39453 1.05078 7.90234 0.75 7.49219 0.75H4.73047C4.32031 0.75 3.82812 1.05078 3.60938 1.40625L2.67969 2.9375H0.4375C0.191406 2.9375 0 3.15625 0 3.375V3.8125C0 4.05859 0.191406 4.25 0.4375 4.25H0.875V13.4375C0.875 14.1758 1.44922 14.75 2.1875 14.75H10.0625C10.7734 14.75 11.375 14.1758 11.375 13.4375V4.25H11.8125C12.0312 4.25 12.25 4.05859 12.25 3.8125V3.375C12.25 3.15625 12.0312 2.9375 11.8125 2.9375ZM4.67578 2.14453C4.70312 2.11719 4.78516 2.0625 4.8125 2.0625H4.83984H7.41016C7.4375 2.0625 7.51953 2.11719 7.54688 2.14453L8.01172 2.9375H4.21094L4.67578 2.14453ZM10.0625 13.4375H2.1875V4.25H10.0625V13.4375ZM4.26562 12.125H4.92188C5.08594 12.125 5.25 11.9883 5.25 11.7969V5.89062C5.25 5.72656 5.08594 5.5625 4.92188 5.5625H4.26562C4.07422 5.5625 3.9375 5.72656 3.9375 5.89062V11.7969C3.9375 11.9883 4.07422 12.125 4.26562 12.125Z" fill="#D63031"/>
</svg>
