<svg xmlns="http://www.w3.org/2000/svg" width="20" height="23" viewBox="0 0 20 23" fill="currentColor">
    <path opacity="0.4" d="M9.99975 12.3452C13.4514 12.3452 16.2496 9.58161 16.2496 6.17258C16.2496 2.76356 13.4514 -7.62939e-06 9.99975 -7.62939e-06C6.54806 -7.62939e-06 3.74991 2.76356 3.74991 6.17258C3.74991 9.58161 6.54806 12.3452 9.99975 12.3452Z" fill="currentColor"/>
    <path d="M19.9883 18.5279C19.994 18.4401 19.994 18.352 19.9883 18.2641C19.9636 17.9394 19.8715 17.6223 19.7171 17.3306C19.1096 16.1434 17.4063 15.6057 15.985 15.3013C14.971 15.0902 13.9408 14.9544 12.9039 14.8954L11.8189 14.8142H11.3307H10.7232H9.2694H8.66184H8.17363L7.08872 14.8954C6.05183 14.9544 5.02156 15.0902 4.00756 15.3013C2.58632 15.5651 0.883009 16.113 0.275457 17.3306C0.121088 17.6223 0.0289623 17.9394 0.00422846 18.2641C-0.00140949 18.352 -0.00140949 18.4401 0.00422846 18.5279C-0.000976955 18.6158 -0.000976955 18.7039 0.00422846 18.7917C0.0337382 19.1136 0.129522 19.4272 0.286306 19.7151C0.893858 20.9022 2.59717 21.44 4.01841 21.7444C5.0343 21.9456 6.06378 22.0812 7.09957 22.1503L8.18448 22.2213H8.44486H8.67269H11.3416H11.5694H11.8298L12.9147 22.1503C13.9505 22.0812 14.98 21.9456 15.9959 21.7444C17.4171 21.4705 19.1204 20.9327 19.728 19.7151C19.8775 19.418 19.9693 19.0985 19.9992 18.7714C20.0006 18.6901 19.997 18.6088 19.9883 18.5279Z" fill="currentColor"/>
</svg>